<?xml version="1.0" encoding="UTF-8" standalone="no"?>
<!DOCTYPE svg PUBLIC "-//W3C//DTD SVG 1.1//EN" "http://www.w3.org/Graphics/SVG/1.1/DTD/svg11.dtd">
<svg width="100%" height="100%" viewBox="0 0 500 500" version="1.1" xmlns="http://www.w3.org/2000/svg" xmlnsXlink="http://www.w3.org/1999/xlink" xmlSpace="preserve" xmlnsSerif="http://www.serif.com/" style="fill-rule:evenodd;clip-rule:evenodd;stroke-linejoin:round;stroke-miterlimit:2;">
    <rect id="Artboard1" x="0" y="0" width="500" height="500" style="fill:none;"/>
    <g id="Artboard11" serifId="Artboard1">
        <g transform="matrix(5.79671,0,0,5.79671,-1151.95,-799.805)">
            <g transform="matrix(77.6303,0,0,77.6303,205.332,183.804)">
                <path d="M0.038,-0.121L0.108,-0.121L0.108,-0.118C0.108,-0.088 0.118,-0.067 0.139,-0.055C0.16,-0.043 0.188,-0.038 0.223,-0.038C0.254,-0.038 0.279,-0.047 0.3,-0.064C0.321,-0.082 0.331,-0.106 0.331,-0.135C0.331,-0.159 0.322,-0.178 0.304,-0.193C0.287,-0.208 0.26,-0.222 0.223,-0.237L0.195,-0.249C0.157,-0.264 0.129,-0.28 0.11,-0.295C0.091,-0.311 0.077,-0.328 0.068,-0.346C0.058,-0.365 0.054,-0.386 0.054,-0.409C0.054,-0.45 0.068,-0.484 0.097,-0.512C0.126,-0.54 0.171,-0.554 0.232,-0.554C0.288,-0.554 0.328,-0.544 0.351,-0.523C0.373,-0.502 0.385,-0.478 0.385,-0.45L0.385,-0.446L0.315,-0.446L0.315,-0.45C0.315,-0.459 0.311,-0.468 0.304,-0.476C0.297,-0.485 0.286,-0.491 0.272,-0.495C0.258,-0.499 0.243,-0.5 0.226,-0.5C0.192,-0.5 0.166,-0.492 0.15,-0.475C0.133,-0.457 0.125,-0.438 0.125,-0.416C0.125,-0.401 0.129,-0.387 0.137,-0.374C0.145,-0.361 0.155,-0.35 0.169,-0.342C0.183,-0.333 0.206,-0.321 0.238,-0.307L0.271,-0.293C0.324,-0.27 0.359,-0.246 0.377,-0.221C0.395,-0.196 0.403,-0.168 0.403,-0.139C0.403,-0.112 0.396,-0.086 0.382,-0.061C0.368,-0.036 0.348,-0.016 0.322,-0.003C0.297,0.01 0.263,0.016 0.221,0.016C0.181,0.016 0.147,0.011 0.12,0.002C0.093,-0.008 0.073,-0.024 0.059,-0.045C0.045,-0.067 0.038,-0.091 0.038,-0.118L0.038,-0.121Z" style="fill-rule:nonzero;"/>
            </g>
            <g transform="matrix(77.6303,0,0,77.6303,238.726,183.804)">
                <path d="M0.121,-0L0.051,-0L0.051,-0.538L0.121,-0.538L0.121,-0.281L0.346,-0.538L0.425,-0.538L0.203,-0.286L0.459,-0L0.372,-0L0.121,-0.281L0.121,-0Z" style="fill-rule:nonzero;"/>
            </g>
            <g transform="matrix(77.6303,0,0,77.6303,275.267,183.804)">
                <rect x="0.051" y="-0.538" width="0.07" height="0.538" style="fill-rule:nonzero;"/>
            </g>
        </g>
        <g transform="matrix(1,0,0,1,-148.937,225.423)">
            <g transform="matrix(354,0,0,354,137.529,265.972)">
                <path d="M0.051,-0L0.051,-0.538L0.121,-0.538L0.121,-0.059L0.403,-0.059L0.403,-0L0.051,-0Z" style="fill-rule:nonzero;"/>
            </g>
            <g transform="matrix(354,0,0,354,284.107,265.972)">
                <path d="M0.051,-0L0.051,-0.538L0.121,-0.538L0.121,-0.059L0.403,-0.059L0.403,-0L0.051,-0Z" style="fill-rule:nonzero;"/>
            </g>
            <g transform="matrix(354,0,0,354,430.685,265.972)">
                <path d="M0.038,-0.121L0.108,-0.121L0.108,-0.118C0.108,-0.088 0.118,-0.067 0.139,-0.055C0.16,-0.043 0.188,-0.038 0.223,-0.038C0.254,-0.038 0.279,-0.047 0.3,-0.064C0.321,-0.082 0.331,-0.106 0.331,-0.135C0.331,-0.159 0.322,-0.178 0.304,-0.193C0.287,-0.208 0.26,-0.222 0.223,-0.237L0.195,-0.249C0.157,-0.264 0.129,-0.28 0.11,-0.295C0.091,-0.311 0.077,-0.328 0.068,-0.346C0.058,-0.365 0.054,-0.386 0.054,-0.409C0.054,-0.45 0.068,-0.484 0.097,-0.512C0.126,-0.54 0.171,-0.554 0.232,-0.554C0.288,-0.554 0.328,-0.544 0.351,-0.523C0.373,-0.502 0.385,-0.478 0.385,-0.45L0.385,-0.446L0.315,-0.446L0.315,-0.45C0.315,-0.459 0.311,-0.468 0.304,-0.476C0.297,-0.485 0.286,-0.491 0.272,-0.495C0.258,-0.499 0.243,-0.5 0.226,-0.5C0.192,-0.5 0.166,-0.492 0.15,-0.475C0.133,-0.457 0.125,-0.438 0.125,-0.416C0.125,-0.401 0.129,-0.387 0.137,-0.374C0.145,-0.361 0.155,-0.35 0.169,-0.342C0.183,-0.333 0.206,-0.321 0.238,-0.307L0.271,-0.293C0.324,-0.27 0.359,-0.246 0.377,-0.221C0.395,-0.196 0.403,-0.168 0.403,-0.139C0.403,-0.112 0.396,-0.086 0.382,-0.061C0.368,-0.036 0.348,-0.016 0.322,-0.003C0.297,0.01 0.263,0.016 0.221,0.016C0.181,0.016 0.147,0.011 0.12,0.002C0.093,-0.008 0.073,-0.024 0.059,-0.045C0.045,-0.067 0.038,-0.091 0.038,-0.118L0.038,-0.121Z" style="fill-rule:nonzero;"/>
            </g>
        </g>
    </g>
</svg>
