<?xml version="1.0" encoding="UTF-8" standalone="no"?>
<!DOCTYPE svg PUBLIC "-//W3C//DTD SVG 1.1//EN" "http://www.w3.org/Graphics/SVG/1.1/DTD/svg11.dtd">
<svg width="100%" height="100%" viewBox="0 0 500 500" version="1.1" xmlns="http://www.w3.org/2000/svg" xmlnsXlink="http://www.w3.org/1999/xlink" xmlSpace="preserve" xmlnsSerif="http://www.serif.com/" style="fill-rule:evenodd;clip-rule:evenodd;stroke-linejoin:round;stroke-miterlimit:2;">
    <rect id="Artboard1" x="0" y="0" width="500" height="500" style="fill:none;"/>
    <g id="Artboard11" serifId="Artboard1">
        <g transform="matrix(5.79671,0,0,5.79671,-1109.95,-799.805)">
            <g transform="matrix(77.6303,0,0,77.6303,205.332,183.804)">
                <path d="M0.076,-0L0.011,-0L0.231,-0.538L0.302,-0.538L0.505,-0L0.43,-0L0.374,-0.148L0.137,-0.148L0.076,-0ZM0.158,-0.202L0.353,-0.202L0.259,-0.452L0.158,-0.202Z" style="fill-rule:nonzero;"/>
            </g>
            <g transform="matrix(77.6303,0,0,77.6303,245.398,183.804)">
                <path d="M0.293,-0.283C0.336,-0.272 0.366,-0.255 0.385,-0.23C0.405,-0.206 0.414,-0.178 0.414,-0.147C0.414,-0.121 0.407,-0.097 0.394,-0.074C0.381,-0.052 0.362,-0.034 0.338,-0.02C0.314,-0.007 0.272,-0 0.212,-0L0.051,-0L0.051,-0.538L0.194,-0.538C0.259,-0.538 0.303,-0.533 0.325,-0.524C0.347,-0.514 0.364,-0.501 0.375,-0.482C0.387,-0.464 0.393,-0.444 0.393,-0.422C0.393,-0.397 0.385,-0.373 0.371,-0.348C0.357,-0.324 0.331,-0.302 0.293,-0.283ZM0.121,-0.304L0.188,-0.304C0.223,-0.304 0.249,-0.309 0.266,-0.318C0.283,-0.327 0.297,-0.34 0.307,-0.357C0.318,-0.375 0.323,-0.392 0.323,-0.411C0.323,-0.431 0.315,-0.448 0.299,-0.462C0.282,-0.477 0.254,-0.484 0.212,-0.484L0.121,-0.484L0.121,-0.304ZM0.121,-0.054L0.22,-0.054C0.267,-0.054 0.299,-0.062 0.316,-0.08C0.333,-0.097 0.341,-0.118 0.341,-0.142C0.341,-0.161 0.336,-0.179 0.325,-0.195C0.314,-0.211 0.297,-0.224 0.275,-0.235C0.254,-0.245 0.219,-0.25 0.173,-0.25L0.121,-0.25L0.121,-0.054Z" style="fill-rule:nonzero;"/>
            </g>
        </g>
        <g transform="matrix(1,0,0,1,-148.937,225.423)">
            <g transform="matrix(354,0,0,354,137.529,265.972)">
                <path d="M0.261,0.016C0.193,0.016 0.138,-0.009 0.096,-0.058C0.053,-0.108 0.032,-0.178 0.032,-0.269C0.032,-0.36 0.053,-0.431 0.096,-0.48C0.138,-0.529 0.193,-0.554 0.261,-0.554C0.328,-0.554 0.383,-0.529 0.426,-0.48C0.468,-0.431 0.49,-0.36 0.49,-0.269C0.49,-0.178 0.468,-0.108 0.426,-0.058C0.383,-0.009 0.328,0.016 0.261,0.016ZM0.261,-0.038C0.31,-0.038 0.348,-0.059 0.375,-0.101C0.403,-0.143 0.417,-0.199 0.417,-0.269C0.417,-0.339 0.403,-0.395 0.375,-0.437C0.348,-0.479 0.31,-0.5 0.261,-0.5C0.212,-0.5 0.174,-0.479 0.146,-0.437C0.118,-0.395 0.104,-0.339 0.104,-0.269C0.104,-0.199 0.118,-0.143 0.146,-0.101C0.174,-0.059 0.212,-0.038 0.261,-0.038Z" style="fill-rule:nonzero;"/>
            </g>
            <g transform="matrix(354,0,0,354,322.307,265.972)">
                <path d="M0.043,-0.538L0.113,-0.538L0.113,-0.192C0.113,-0.142 0.118,-0.108 0.128,-0.091C0.138,-0.074 0.153,-0.06 0.174,-0.051C0.195,-0.042 0.218,-0.038 0.243,-0.038C0.268,-0.038 0.29,-0.042 0.309,-0.051C0.328,-0.06 0.343,-0.075 0.352,-0.094C0.361,-0.114 0.366,-0.155 0.366,-0.217L0.366,-0.538L0.43,-0.538L0.43,-0.199C0.43,-0.136 0.423,-0.092 0.408,-0.066C0.394,-0.041 0.373,-0.021 0.346,-0.006C0.319,0.009 0.285,0.016 0.243,0.016C0.205,0.016 0.17,0.01 0.138,-0.001C0.106,-0.013 0.082,-0.031 0.066,-0.056C0.051,-0.081 0.043,-0.123 0.043,-0.183L0.043,-0.538Z" style="fill-rule:nonzero;"/>
            </g>
            <g transform="matrix(354,0,0,354,489.8,265.972)">
                <path d="M0.194,-0L0.194,-0.484L0.011,-0.484L0.011,-0.538L0.444,-0.538L0.444,-0.484L0.264,-0.484L0.264,-0L0.194,-0Z" style="fill-rule:nonzero;"/>
            </g>
        </g>
    </g>
</svg>
